<svg width="1200" height="750" viewBox="0 0 1200 750" fill="none" xmlns="http://www.w3.org/2000/svg">
  <defs>
    <linearGradient id="bg3" x1="0" y1="0" x2="1" y2="1">
      <stop offset="0%" stop-color="#0F172A"/>
      <stop offset="100%" stop-color="#1E1B4B"/>
    </linearGradient>
    <linearGradient id="accent3" x1="0" y1="0" x2="1" y2="1">
      <stop offset="0%" stop-color="#F472B6"/>
      <stop offset="100%" stop-color="#6366F1"/>
    </linearGradient>
  </defs>
  <rect width="1200" height="750" rx="36" fill="url(#bg3)"/>
  <rect x="72" y="72" width="1056" height="606" rx="28" fill="#0B1120" stroke="#312E81" stroke-width="2"/>
  <rect x="112" y="120" width="320" height="36" rx="18" fill="#1F2937"/>
  <rect x="112" y="182" width="976" height="480" rx="20" fill="#0F172A" stroke="#1E293B" stroke-width="2"/>
  <rect x="152" y="232" width="240" height="120" rx="18" fill="#1E293B"/>
  <rect x="420" y="232" width="240" height="120" rx="18" fill="#1E293B"/>
  <rect x="688" y="232" width="360" height="120" rx="18" fill="#1E293B"/>
  <rect x="152" y="388" width="896" height="224" rx="22" fill="#111827"/>
  <path d="M190 560 L320 500 L420 520 L540 470 L640 520 L760 460 L920 500" stroke="url(#accent3)" stroke-width="6" fill="none"/>
  <circle cx="320" cy="500" r="8" fill="#F472B6"/>
  <circle cx="540" cy="470" r="8" fill="#F472B6"/>
  <circle cx="760" cy="460" r="8" fill="#F472B6"/>
  <text x="152" y="176" fill="#E9D5FF" font-size="26" font-family="Inter, sans-serif">營運儀表板</text>
  <text x="152" y="640" fill="#94A3B8" font-size="18" font-family="Inter, sans-serif">每日回覆量 / 轉接率 / 熱門問題</text>
</svg>
