<svg width="1200" height="750" viewBox="0 0 1200 750" fill="none" xmlns="http://www.w3.org/2000/svg">
  <defs>
    <linearGradient id="bg" x1="0" y1="0" x2="1" y2="1">
      <stop offset="0%" stop-color="#111827"/>
      <stop offset="100%" stop-color="#1E1B4B"/>
    </linearGradient>
    <linearGradient id="accent" x1="0" y1="0" x2="1" y2="1">
      <stop offset="0%" stop-color="#6366F1"/>
      <stop offset="100%" stop-color="#A855F7"/>
    </linearGradient>
  </defs>
  <rect width="1200" height="750" rx="36" fill="url(#bg)"/>
  <rect x="72" y="72" width="1056" height="606" rx="28" fill="#0F172A" stroke="#312E81" stroke-width="2"/>
  <rect x="112" y="120" width="360" height="36" rx="18" fill="#1F2937"/>
  <rect x="112" y="192" width="976" height="440" rx="20" fill="#111827" stroke="#1E1B4B" stroke-width="2"/>
  <rect x="152" y="232" width="420" height="64" rx="14" fill="#1E293B"/>
  <rect x="152" y="320" width="680" height="20" rx="10" fill="#1F2937"/>
  <rect x="152" y="360" width="600" height="20" rx="10" fill="#1F2937"/>
  <rect x="152" y="400" width="520" height="20" rx="10" fill="#1F2937"/>
  <rect x="152" y="448" width="220" height="48" rx="12" fill="url(#accent)"/>
  <rect x="420" y="448" width="180" height="48" rx="12" fill="#1E293B"/>
  <circle cx="1000" cy="260" r="84" fill="#1E293B"/>
  <circle cx="1000" cy="260" r="58" fill="url(#accent)" opacity="0.7"/>
  <text x="152" y="176" fill="#A5B4FC" font-size="28" font-family="Inter, sans-serif">公司設定表單</text>
  <text x="152" y="520" fill="#C7D2FE" font-size="20" font-family="Inter, sans-serif">送出設定 → AI 立即生成 FAQ 與流程</text>
  <text x="920" y="540" fill="#94A3B8" font-size="18" font-family="Inter, sans-serif">即時預覽</text>
</svg>
